<svg width="354" height="60" viewBox="0 0 354 60" fill="none" xmlns="http://www.w3.org/2000/svg" preserveAspectRatio="xMidYMid slice">   
<rect x="1" y="1" width="352" height="58" rx="5" fill="white"/>
<path d="M83.078 34.042H87.11V36.418H80V23.782H83.078V34.042Z" fill="black"/>
<path d="M93.1488 36.562C92.1648 36.562 91.2768 36.352 90.4848 35.932C89.7048 35.512 89.0868 34.912 88.6308 34.132C88.1868 33.352 87.9648 32.44 87.9648 31.396C87.9648 30.364 88.1928 29.458 88.6488 28.678C89.1048 27.886 89.7288 27.28 90.5208 26.86C91.3128 26.44 92.2008 26.23 93.1848 26.23C94.1688 26.23 95.0568 26.44 95.8488 26.86C96.6408 27.28 97.2648 27.886 97.7208 28.678C98.1768 29.458 98.4048 30.364 98.4048 31.396C98.4048 32.428 98.1708 33.34 97.7028 34.132C97.2468 34.912 96.6168 35.512 95.8128 35.932C95.0208 36.352 94.1328 36.562 93.1488 36.562ZM93.1488 33.898C93.7368 33.898 94.2348 33.682 94.6428 33.25C95.0628 32.818 95.2728 32.2 95.2728 31.396C95.2728 30.592 95.0688 29.974 94.6608 29.542C94.2648 29.11 93.7728 28.894 93.1848 28.894C92.5848 28.894 92.0868 29.11 91.6908 29.542C91.2948 29.962 91.0968 30.58 91.0968 31.396C91.0968 32.2 91.2888 32.818 91.6728 33.25C92.0688 33.682 92.5608 33.898 93.1488 33.898Z" fill="black"/>
<path d="M103.854 26.23C104.562 26.23 105.18 26.374 105.708 26.662C106.248 26.95 106.662 27.328 106.95 27.796V26.374H110.028V36.4C110.028 37.324 109.842 38.158 109.47 38.902C109.11 39.658 108.552 40.258 107.796 40.702C107.052 41.146 106.122 41.368 105.006 41.368C103.518 41.368 102.312 41.014 101.388 40.306C100.464 39.61 99.9358 38.662 99.8038 37.462H102.846C102.942 37.846 103.17 38.146 103.53 38.362C103.89 38.59 104.334 38.704 104.862 38.704C105.498 38.704 106.002 38.518 106.374 38.146C106.758 37.786 106.95 37.204 106.95 36.4V34.978C106.65 35.446 106.236 35.83 105.708 36.13C105.18 36.418 104.562 36.562 103.854 36.562C103.026 36.562 102.276 36.352 101.604 35.932C100.932 35.5 100.398 34.894 100.002 34.114C99.6178 33.322 99.4258 32.41 99.4258 31.378C99.4258 30.346 99.6178 29.44 100.002 28.66C100.398 27.88 100.932 27.28 101.604 26.86C102.276 26.44 103.026 26.23 103.854 26.23ZM106.95 31.396C106.95 30.628 106.734 30.022 106.302 29.578C105.882 29.134 105.366 28.912 104.754 28.912C104.142 28.912 103.62 29.134 103.188 29.578C102.768 30.01 102.558 30.61 102.558 31.378C102.558 32.146 102.768 32.758 103.188 33.214C103.62 33.658 104.142 33.88 104.754 33.88C105.366 33.88 105.882 33.658 106.302 33.214C106.734 32.77 106.95 32.164 106.95 31.396Z" fill="black"/>
<path d="M117.617 25.33C117.077 25.33 116.633 25.174 116.285 24.862C115.949 24.538 115.781 24.142 115.781 23.674C115.781 23.194 115.949 22.798 116.285 22.486C116.633 22.162 117.077 22 117.617 22C118.145 22 118.577 22.162 118.913 22.486C119.261 22.798 119.435 23.194 119.435 23.674C119.435 24.142 119.261 24.538 118.913 24.862C118.577 25.174 118.145 25.33 117.617 25.33ZM119.147 26.374V36.418H116.069V26.374H119.147Z" fill="black"/>
<path d="M127.499 26.266C128.675 26.266 129.611 26.65 130.307 27.418C131.015 28.174 131.369 29.218 131.369 30.55V36.418H128.309V30.964C128.309 30.292 128.135 29.77 127.787 29.398C127.439 29.026 126.971 28.84 126.383 28.84C125.795 28.84 125.327 29.026 124.979 29.398C124.631 29.77 124.457 30.292 124.457 30.964V36.418H121.379V26.374H124.457V27.706C124.769 27.262 125.189 26.914 125.717 26.662C126.245 26.398 126.839 26.266 127.499 26.266Z" fill="black"/>
<path d="M151.739 26.374L149.021 36.418H145.619L144.035 29.902L142.397 36.418H139.013L136.277 26.374H139.355L140.777 33.556L142.469 26.374H145.727L147.437 33.52L148.841 26.374H151.739Z" fill="black"/>
<path d="M154.461 25.33C153.921 25.33 153.477 25.174 153.129 24.862C152.793 24.538 152.625 24.142 152.625 23.674C152.625 23.194 152.793 22.798 153.129 22.486C153.477 22.162 153.921 22 154.461 22C154.989 22 155.421 22.162 155.757 22.486C156.105 22.798 156.279 23.194 156.279 23.674C156.279 24.142 156.105 24.538 155.757 24.862C155.421 25.174 154.989 25.33 154.461 25.33ZM155.991 26.374V36.418H152.913V26.374H155.991Z" fill="black"/>
<path d="M163.82 33.808V36.418H162.254C161.138 36.418 160.268 36.148 159.644 35.608C159.02 35.056 158.708 34.162 158.708 32.926V28.93H157.484V26.374H158.708V23.926H161.786V26.374H163.802V28.93H161.786V32.962C161.786 33.262 161.858 33.478 162.002 33.61C162.146 33.742 162.386 33.808 162.722 33.808H163.82Z" fill="black"/>
<path d="M171.709 26.266C172.861 26.266 173.785 26.65 174.481 27.418C175.177 28.174 175.525 29.218 175.525 30.55V36.418H172.465V30.964C172.465 30.292 172.291 29.77 171.943 29.398C171.595 29.026 171.127 28.84 170.539 28.84C169.951 28.84 169.483 29.026 169.135 29.398C168.787 29.77 168.613 30.292 168.613 30.964V36.418H165.535V23.098H168.613V27.724C168.925 27.28 169.351 26.926 169.891 26.662C170.431 26.398 171.037 26.266 171.709 26.266Z" fill="black"/>
<path d="M187.073 36.6792C189.953 36.6792 191.705 35.1741 191.705 32.7868C191.705 31.1521 190.706 30.0363 188.643 29.5822L186.619 29.128C185.853 28.9464 185.451 28.6999 185.451 28.2458C185.451 27.7917 185.827 27.5062 186.748 27.5062C187.816 27.5435 188.836 27.9571 189.629 28.6739L191.328 26.1829C189.991 25.2474 188.378 24.7903 186.748 24.8854C184.05 24.8854 182.233 26.1829 182.233 28.4793C182.216 29.2945 182.504 30.0867 183.042 30.6993C183.581 31.3119 184.329 31.7003 185.14 31.7878L187.151 32.2679C188.15 32.4884 188.448 32.7868 188.448 33.1761C188.448 33.5653 188.046 33.9416 187.151 33.9416C185.882 33.9167 184.659 33.4589 183.686 32.6441L181.883 35.0574C183.368 36.1929 185.206 36.7673 187.073 36.6792Z" fill="#F4333D"/>
<path d="M195.066 28.7118C195.457 28.7118 195.839 28.5958 196.163 28.3786C196.488 28.1613 196.741 27.8525 196.889 27.4914C197.038 27.1303 197.077 26.7331 196.999 26.3502C196.922 25.9673 196.733 25.6159 196.456 25.3406C196.179 25.0654 195.826 24.8786 195.443 24.8039C195.06 24.7293 194.663 24.7702 194.303 24.9215C193.942 25.0727 193.635 25.3275 193.42 25.6535C193.205 25.9796 193.092 26.3621 193.094 26.7527C193.091 27.0121 193.139 27.2695 193.237 27.5096C193.335 27.7498 193.481 27.9677 193.665 28.1505C193.849 28.3333 194.068 28.4772 194.308 28.5737C194.549 28.6701 194.807 28.7171 195.066 28.7118Z" fill="black"/>
<path d="M192.938 36.4182H197.193L196.298 29.3731C195.494 29.5807 194.65 29.5807 193.846 29.3731L192.938 36.4182Z" fill="black"/>
<path d="M199.191 36.4172H202.642V30.3192C202.642 28.8272 203.368 27.906 204.77 27.906C206.171 27.906 206.807 28.6715 206.807 30.3192V36.4172H210.206V29.4629C210.206 26.4269 208.688 24.87 206.093 24.87C205.417 24.8406 204.745 24.985 204.141 25.2893C203.537 25.5937 203.021 26.0479 202.642 26.6086V25.882C202.652 25.7756 202.638 25.6682 202.602 25.5677C202.566 25.4671 202.508 25.3757 202.432 25.3002C202.357 25.2246 202.265 25.1666 202.165 25.1304C202.064 25.0941 201.957 25.0805 201.85 25.0905H199.256L199.191 36.4172Z" fill="#F4333D"/>
<path d="M221.325 25.0919C221.218 25.0819 221.111 25.0955 221.011 25.1318C220.91 25.168 220.819 25.226 220.743 25.3016C220.667 25.3771 220.609 25.4685 220.573 25.5691C220.537 25.6696 220.523 25.777 220.533 25.8834V26.571C220.156 26.015 219.641 25.5662 219.038 25.2683C218.436 24.9705 217.766 24.8337 217.095 24.8714C215.698 25.0058 214.402 25.6557 213.458 26.6944C212.515 27.7331 211.992 29.086 211.992 30.4893C211.992 31.8926 212.515 33.2455 213.458 34.2842C214.402 35.3229 215.698 35.9728 217.095 36.1072C217.744 36.1481 218.394 36.0355 218.991 35.7786C219.588 35.5216 220.117 35.1275 220.533 34.6281V35.3807C220.534 35.7361 220.462 36.0879 220.321 36.4143C220.18 36.7406 219.974 37.0345 219.715 37.2778C219.456 37.5211 219.149 37.7086 218.815 37.8286C218.48 37.9486 218.125 37.9987 217.77 37.9756C216.496 38.0003 215.261 37.536 214.319 36.6781L212.541 39.273C214.055 40.4174 215.927 40.9875 217.822 40.8818C221.221 40.8818 223.985 39.1822 223.985 34.9136V25.0919H221.325ZM218.003 33.1101C217.49 33.1101 216.989 32.958 216.562 32.6728C216.135 32.3877 215.802 31.9824 215.606 31.5083C215.41 31.0341 215.358 30.5124 215.458 30.009C215.559 29.5057 215.806 29.0433 216.169 28.6804C216.531 28.3175 216.994 28.0704 217.497 27.9702C218.001 27.8701 218.522 27.9215 218.996 28.1179C219.471 28.3143 219.876 28.6469 220.161 29.0736C220.446 29.5003 220.598 30.002 220.598 30.5153C220.598 31.2035 220.325 31.8635 219.838 32.3501C219.352 32.8368 218.692 33.1101 218.003 33.1101Z" fill="#F4333D"/>
<path d="M233.484 24.8704C232.792 24.8398 232.103 24.9786 231.476 25.2748C230.85 25.571 230.305 26.0156 229.89 26.5701V25.8824C229.9 25.776 229.886 25.6687 229.85 25.5681C229.814 25.4675 229.756 25.3762 229.68 25.3006C229.605 25.225 229.513 25.167 229.413 25.1308C229.312 25.0946 229.205 25.081 229.099 25.091H226.504V40.5695H229.89V35.1721C230.341 35.6725 230.897 36.0669 231.518 36.3271C232.14 36.5873 232.811 36.7068 233.484 36.6771C234.226 36.6582 234.957 36.4885 235.631 36.1784C236.306 35.8683 236.91 35.4243 237.408 34.8734C237.905 34.3224 238.285 33.676 238.525 32.9735C238.765 32.271 238.86 31.527 238.803 30.7867C238.864 30.0445 238.772 29.2977 238.534 28.5921C238.295 27.8865 237.916 27.2369 237.418 26.6831C236.92 26.1293 236.314 25.6829 235.638 25.3713C234.961 25.0596 234.228 24.8891 233.484 24.8704ZM232.576 33.6541C231.996 33.6774 231.422 33.5266 230.929 33.2212C230.436 32.9158 230.045 32.4697 229.808 31.9403C229.57 31.411 229.496 30.8226 229.596 30.251C229.695 29.6794 229.964 29.1507 230.367 28.733C230.769 28.3153 231.288 28.0277 231.856 27.9072C232.423 27.7868 233.014 27.8389 233.551 28.0571C234.089 28.2752 234.549 28.6493 234.872 29.1311C235.196 29.613 235.367 30.1806 235.365 30.7608C235.385 31.1371 235.327 31.5135 235.195 31.8665C235.063 32.2195 234.86 32.5417 234.598 32.813C234.337 33.0843 234.022 33.2989 233.674 33.4436C233.326 33.5883 232.952 33.6599 232.576 33.6541Z" fill="#F4333D"/>
<path d="M250.024 25.0913C249.917 25.0813 249.81 25.0948 249.709 25.1311C249.609 25.1673 249.517 25.2253 249.442 25.3009C249.366 25.3765 249.308 25.4678 249.272 25.5684C249.236 25.669 249.222 25.7763 249.232 25.8827V26.5704C248.811 26.0065 248.256 25.5561 247.617 25.2594C246.978 24.9628 246.276 24.8292 245.573 24.8707C244.831 24.8897 244.101 25.0593 243.426 25.3694C242.752 25.6795 242.147 26.1235 241.65 26.6745C241.152 27.2254 240.772 27.8718 240.532 28.5744C240.292 29.2769 240.197 30.0209 240.254 30.7611C240.197 31.5013 240.292 32.2453 240.532 32.9478C240.772 33.6504 241.152 34.2967 241.65 34.8477C242.147 35.3987 242.752 35.8427 243.426 36.1528C244.101 36.4629 244.831 36.6325 245.573 36.6515C246.276 36.6895 246.977 36.5544 247.615 36.258C248.253 35.9617 248.808 35.5131 249.232 34.9518V36.4179H252.631V25.0913H250.024ZM246.482 33.6544C245.746 33.6052 245.057 33.2782 244.553 32.7398C244.05 32.2014 243.769 31.4918 243.769 30.7546C243.769 30.0174 244.05 29.3078 244.553 28.7694C245.057 28.231 245.746 27.9041 246.482 27.8548C247.217 27.9041 247.906 28.231 248.41 28.7694C248.914 29.3078 249.194 30.0174 249.194 30.7546C249.194 31.4918 248.914 32.2014 248.41 32.7398C247.906 33.2782 247.217 33.6052 246.482 33.6544Z" fill="#F4333D"/>
<path d="M259.512 36.6782C262.392 36.6782 264.144 35.1732 264.144 32.7859C264.144 31.1511 263.145 30.0353 261.082 29.5812L259.071 29.1271C258.292 28.9454 257.89 28.6989 257.89 28.2448C257.89 27.7907 258.266 27.5053 259.188 27.5053C260.255 27.5425 261.276 27.9561 262.068 28.673L263.768 26.1819C262.43 25.2464 260.817 24.7893 259.188 24.8844C256.489 24.8844 254.673 26.1819 254.673 28.4784C254.655 29.2935 254.944 30.0857 255.482 30.6983C256.02 31.3109 256.768 31.6993 257.579 31.7868L259.59 32.2669C260.589 32.4874 260.887 32.7859 260.887 33.1751C260.887 33.5643 260.472 33.9406 259.59 33.9406C258.321 33.9157 257.099 33.4579 256.126 32.6431L254.426 35.1342C255.914 36.2605 257.752 36.8256 259.616 36.7301L259.512 36.6782Z" fill="#F4333D"/>
<path d="M270.25 36.679C273.131 36.679 274.882 35.1739 274.882 32.7866C274.882 31.1518 273.883 30.036 271.82 29.5819L269.796 29.1278C269.031 28.9462 268.628 28.6997 268.628 28.2456C268.628 27.7915 269.005 27.506 269.926 27.506C270.99 27.5418 272.007 27.9558 272.793 28.6737L274.493 26.1826C273.162 25.2444 271.551 24.7869 269.926 24.8852C267.227 24.8852 265.411 26.1826 265.411 28.4791C265.393 29.2943 265.682 30.0865 266.22 30.6991C266.758 31.3116 267.506 31.7001 268.317 31.7876L270.328 32.2676C271.327 32.4882 271.625 32.7866 271.625 33.1759C271.625 33.5651 271.223 33.9413 270.328 33.9413C269.059 33.9165 267.837 33.4587 266.864 32.6439L265.164 35.135C266.652 36.2613 268.49 36.8264 270.354 36.7309L270.25 36.679Z" fill="#F4333D"/>
</svg>